<mxfile host="Electron" modified="2023-12-27T11:28:19.159Z" agent="Mozilla/5.0 (X11; Linux x86_64) AppleWebKit/537.36 (KHTML, like Gecko) draw.io/22.0.2 Chrome/114.0.5735.289 Electron/25.8.4 Safari/537.36" etag="6dzncF6uvY3QU68Nqz31" version="22.0.2" type="device">
  <diagram name="Page-1" id="4sqUL55z8RDWUP-ii43x">
    <mxGraphModel dx="1604" dy="843" grid="1" gridSize="10" guides="1" tooltips="1" connect="1" arrows="1" fold="1" page="1" pageScale="1" pageWidth="850" pageHeight="1100" math="0" shadow="0">
      <root>
        <mxCell id="0" />
        <mxCell id="1" parent="0" />
        <mxCell id="UWoMR0t3Z6vT5_yWlnvG-1" value="Specie" style="whiteSpace=wrap;html=1;align=center;" vertex="1" parent="1">
          <mxGeometry x="340" y="580" width="100" height="40" as="geometry" />
        </mxCell>
        <mxCell id="UWoMR0t3Z6vT5_yWlnvG-2" value="Azienda" style="whiteSpace=wrap;html=1;align=center;" vertex="1" parent="1">
          <mxGeometry x="340" y="340" width="100" height="40" as="geometry" />
        </mxCell>
        <mxCell id="UWoMR0t3Z6vT5_yWlnvG-3" value="Gestore" style="whiteSpace=wrap;html=1;align=center;" vertex="1" parent="1">
          <mxGeometry x="340" y="90" width="100" height="40" as="geometry" />
        </mxCell>
        <mxCell id="UWoMR0t3Z6vT5_yWlnvG-4" value="Gestione" style="shape=rhombus;perimeter=rhombusPerimeter;whiteSpace=wrap;html=1;align=center;" vertex="1" parent="1">
          <mxGeometry x="330" y="210" width="120" height="60" as="geometry" />
        </mxCell>
        <mxCell id="UWoMR0t3Z6vT5_yWlnvG-5" value="Vendita" style="shape=rhombus;perimeter=rhombusPerimeter;whiteSpace=wrap;html=1;align=center;" vertex="1" parent="1">
          <mxGeometry x="330" y="450" width="120" height="60" as="geometry" />
        </mxCell>
        <mxCell id="UWoMR0t3Z6vT5_yWlnvG-6" value="" style="endArrow=none;html=1;rounded=0;entryX=0.5;entryY=0;entryDx=0;entryDy=0;" edge="1" parent="1" source="UWoMR0t3Z6vT5_yWlnvG-3" target="UWoMR0t3Z6vT5_yWlnvG-4">
          <mxGeometry relative="1" as="geometry">
            <mxPoint x="160" y="260" as="sourcePoint" />
            <mxPoint x="320" y="260" as="targetPoint" />
          </mxGeometry>
        </mxCell>
        <mxCell id="UWoMR0t3Z6vT5_yWlnvG-7" value="" style="resizable=0;html=1;whiteSpace=wrap;align=left;verticalAlign=bottom;" connectable="0" vertex="1" parent="UWoMR0t3Z6vT5_yWlnvG-6">
          <mxGeometry x="-1" relative="1" as="geometry">
            <mxPoint x="10" y="50" as="offset" />
          </mxGeometry>
        </mxCell>
        <mxCell id="UWoMR0t3Z6vT5_yWlnvG-8" value="" style="resizable=0;html=1;whiteSpace=wrap;align=right;verticalAlign=bottom;" connectable="0" vertex="1" parent="UWoMR0t3Z6vT5_yWlnvG-6">
          <mxGeometry x="1" relative="1" as="geometry" />
        </mxCell>
        <mxCell id="UWoMR0t3Z6vT5_yWlnvG-10" value="" style="endArrow=none;html=1;rounded=0;" edge="1" parent="1" source="UWoMR0t3Z6vT5_yWlnvG-4" target="UWoMR0t3Z6vT5_yWlnvG-2">
          <mxGeometry relative="1" as="geometry">
            <mxPoint x="550" y="240" as="sourcePoint" />
            <mxPoint x="550" y="320" as="targetPoint" />
          </mxGeometry>
        </mxCell>
        <mxCell id="UWoMR0t3Z6vT5_yWlnvG-11" value="" style="resizable=0;html=1;whiteSpace=wrap;align=left;verticalAlign=bottom;" connectable="0" vertex="1" parent="UWoMR0t3Z6vT5_yWlnvG-10">
          <mxGeometry x="-1" relative="1" as="geometry">
            <mxPoint x="10" y="50" as="offset" />
          </mxGeometry>
        </mxCell>
        <mxCell id="UWoMR0t3Z6vT5_yWlnvG-12" value="" style="resizable=0;html=1;whiteSpace=wrap;align=right;verticalAlign=bottom;" connectable="0" vertex="1" parent="UWoMR0t3Z6vT5_yWlnvG-10">
          <mxGeometry x="1" relative="1" as="geometry" />
        </mxCell>
        <mxCell id="UWoMR0t3Z6vT5_yWlnvG-13" value="" style="endArrow=none;html=1;rounded=0;" edge="1" parent="1" source="UWoMR0t3Z6vT5_yWlnvG-2" target="UWoMR0t3Z6vT5_yWlnvG-5">
          <mxGeometry relative="1" as="geometry">
            <mxPoint x="389.5" y="370" as="sourcePoint" />
            <mxPoint x="389.5" y="440" as="targetPoint" />
          </mxGeometry>
        </mxCell>
        <mxCell id="UWoMR0t3Z6vT5_yWlnvG-14" value="" style="resizable=0;html=1;whiteSpace=wrap;align=left;verticalAlign=bottom;" connectable="0" vertex="1" parent="UWoMR0t3Z6vT5_yWlnvG-13">
          <mxGeometry x="-1" relative="1" as="geometry">
            <mxPoint x="10" y="50" as="offset" />
          </mxGeometry>
        </mxCell>
        <mxCell id="UWoMR0t3Z6vT5_yWlnvG-15" value="" style="resizable=0;html=1;whiteSpace=wrap;align=right;verticalAlign=bottom;" connectable="0" vertex="1" parent="UWoMR0t3Z6vT5_yWlnvG-13">
          <mxGeometry x="1" relative="1" as="geometry" />
        </mxCell>
        <mxCell id="UWoMR0t3Z6vT5_yWlnvG-16" value="" style="endArrow=none;html=1;rounded=0;" edge="1" parent="1" source="UWoMR0t3Z6vT5_yWlnvG-5" target="UWoMR0t3Z6vT5_yWlnvG-1">
          <mxGeometry relative="1" as="geometry">
            <mxPoint x="400" y="390" as="sourcePoint" />
            <mxPoint x="400" y="460" as="targetPoint" />
          </mxGeometry>
        </mxCell>
        <mxCell id="UWoMR0t3Z6vT5_yWlnvG-17" value="" style="resizable=0;html=1;whiteSpace=wrap;align=left;verticalAlign=bottom;" connectable="0" vertex="1" parent="UWoMR0t3Z6vT5_yWlnvG-16">
          <mxGeometry x="-1" relative="1" as="geometry">
            <mxPoint x="10" y="50" as="offset" />
          </mxGeometry>
        </mxCell>
        <mxCell id="UWoMR0t3Z6vT5_yWlnvG-18" value="" style="resizable=0;html=1;whiteSpace=wrap;align=right;verticalAlign=bottom;" connectable="0" vertex="1" parent="UWoMR0t3Z6vT5_yWlnvG-16">
          <mxGeometry x="1" relative="1" as="geometry" />
        </mxCell>
      </root>
    </mxGraphModel>
  </diagram>
</mxfile>
